<svg width="138" height="33" viewBox="0 0 138 33" fill="none" xmlns="http://www.w3.org/2000/svg">
<rect width="136.936" height="31" transform="translate(1 2)" fill="#3E3951"/>
<path d="M39.5 11.5H31L22.9358 15L17.9358 20.5M17.9358 20.5L12.5 30.5L2 28.5L10 13.5L17.9358 20.5Z" stroke="white" stroke-width="3" stroke-linejoin="bevel"/>
<path d="M40.4358 6.36657L41.6024 8.01798L41.7626 8.24478L42.0399 8.22864L44.0584 8.1111L43.4946 10.0528L43.4172 10.3195L43.6026 10.5262L44.9531 12.031L43.0835 12.8009L42.8267 12.9067L42.7807 13.1805L42.4462 15.1746L40.6786 14.1929L40.4358 14.0581L40.193 14.1929L38.4254 15.1746L38.0909 13.1805L38.0449 12.9067L37.7881 12.8009L35.9185 12.031L37.2689 10.5262L37.4544 10.3195L37.377 10.0528L36.8132 8.1111L38.8317 8.22864L39.1089 8.24478L39.2692 8.01798L40.4358 6.36657Z" fill="white" stroke="#EA6E4B"/>
<path d="M59.9358 8.76277L60.6329 9.76538L60.6483 9.78752L60.6704 9.80291L61.673 10.5L60.6704 11.1971L60.6483 11.2125L60.6329 11.2346L59.9358 12.2372L59.2387 11.2346L59.2233 11.2125L59.2012 11.1971L58.1986 10.5L59.2012 9.80291L59.2233 9.78752L59.2387 9.76538L59.9358 8.76277Z" fill="white" stroke="#EA6E4B" stroke-width="0.3"/>
<path d="M65.9358 8.76277L66.6329 9.76538L66.6483 9.78752L66.6704 9.80291L67.673 10.5L66.6704 11.1971L66.6483 11.2125L66.6329 11.2346L65.9358 12.2372L65.2387 11.2346L65.2233 11.2125L65.2012 11.1971L64.1986 10.5L65.2012 9.80291L65.2233 9.78752L65.2387 9.76538L65.9358 8.76277Z" fill="white" stroke="#EA6E4B" stroke-width="0.3"/>
<path d="M57 15.5V14L55.5 15.4934L57 15.5ZM56.9358 30L55.4358 29.9934L56.9358 31.5V30ZM69.9358 30V31.5L71.4358 30H69.9358ZM69.9358 15.5H71.4358L69.9358 14V15.5ZM79.4358 15.5V14H78.8145L78.3751 14.4393L79.4358 15.5ZM91.4358 15.5V14H90.8145L90.3751 14.4393L91.4358 15.5ZM89.4358 27H87.9358V27.6213L88.3751 28.0607L89.4358 27ZM92.4358 30L91.3751 31.0607L91.8145 31.5H92.4358V30ZM101.436 15.5L102.496 14.4393L102.057 14H101.436V15.5ZM103.436 17.5H104.936V16.8787L104.496 16.4393L103.436 17.5ZM103.436 21.3521L104.534 22.3742L104.936 21.9423V21.3521H103.436ZM108.436 17.5L107.375 16.4393L106.936 16.8787V17.5H108.436ZM108.436 27H106.936V27.6213L107.375 28.0607L108.436 27ZM111.436 30L110.375 31.0607L110.814 31.5H111.436V30ZM118.936 30V31.5H119.557L119.996 31.0607L118.936 30ZM121.936 17.5H123.436V16.8787L122.996 16.4393L121.936 17.5ZM119.936 15.5L120.996 14.4393L120.557 14H119.936V15.5ZM110.436 15.5V14H109.814L109.375 14.4393L110.436 15.5ZM89.4358 17.5L88.3751 16.4393L87.9358 16.8787V17.5H89.4358ZM101.436 23.5V25H102.089L102.534 24.5222L101.436 23.5ZM32.9358 2V0.5L31.4358 2H32.9358ZM48.4358 2H49.9358L48.4358 0.5V2ZM50.9358 18.5H52.4358L52.1564 17.6281L50.9358 18.5ZM50.9358 30V31.5L52.4358 30H50.9358ZM32.9358 30H31.4358L32.9358 31.5V30ZM128.436 27H126.936V27.6213L127.375 28.0607L128.436 27ZM131.436 30L130.375 31.0607L130.814 31.5H131.436V30ZM45.5 18.5V20H46.1996L46.6492 19.464L45.5 18.5ZM55.5 15.4934L55.4358 29.9934L58.4358 30.0066L58.5 15.5066L55.5 15.4934ZM56.9358 31.5H69.9358V28.5H56.9358V31.5ZM71.4358 30V15.5H68.4358V30H71.4358ZM69.9358 14L57 14V17L69.9358 17V14ZM73.9358 14V19.5H76.9358V14H73.9358ZM73.9358 19.5V30.5H76.9358V19.5H73.9358ZM76.4965 20.5607L80.4965 16.5607L78.3751 14.4393L74.3751 18.4393L76.4965 20.5607ZM79.4358 17H86.4358V14H79.4358V17ZM87.9358 23.5V27H90.9358V23.5H87.9358ZM88.3751 28.0607L91.3751 31.0607L93.4965 28.9393L90.4965 25.9393L88.3751 28.0607ZM92.4358 31.5H104.936V28.5H92.4358V31.5ZM91.4358 17H101.436V14H91.4358V17ZM100.375 16.5607L102.375 18.5607L104.496 16.4393L102.496 14.4393L100.375 16.5607ZM101.936 17.5V21.3521H104.936V17.5H101.936ZM106.936 17.5V27H109.936V17.5H106.936ZM107.375 28.0607L110.375 31.0607L112.496 28.9393L109.496 25.9393L107.375 28.0607ZM111.436 31.5H118.936V28.5H111.436V31.5ZM119.996 31.0607L122.996 28.0607L120.875 25.9393L117.875 28.9393L119.996 31.0607ZM123.436 27V17.5H120.436V27H123.436ZM122.996 16.4393L120.996 14.4393L118.875 16.5607L120.875 18.5607L122.996 16.4393ZM119.936 14H110.436V17H119.936V14ZM109.375 14.4393L107.375 16.4393L109.496 18.5607L111.496 16.5607L109.375 14.4393ZM120.875 28.0607L124.375 31.5607L126.496 29.4393L122.996 25.9393L120.875 28.0607ZM90.3751 14.4393L88.3751 16.4393L90.4965 18.5607L92.4965 16.5607L90.3751 14.4393ZM87.9358 17.5V23.5H90.9358V17.5H87.9358ZM102.338 20.3299L100.338 22.4778L102.534 24.5222L104.534 22.3742L102.338 20.3299ZM101.436 22H89.4358V25H101.436V22ZM32.9358 3.5H48.4358V0.5H32.9358V3.5ZM46.9358 2V15H49.9358V2H46.9358ZM47.2152 15.8719L49.7152 19.3719L52.1564 17.6281L49.6564 14.1281L47.2152 15.8719ZM49.4358 18.5V30H52.4358V18.5H49.4358ZM50.9358 28.5H32.9358V31.5H50.9358V28.5ZM34.4358 30V18.5H31.4358V30H34.4358ZM31.4358 2V18.5H34.4358V2H31.4358ZM126.936 7.5V27H129.936V7.5H126.936ZM127.375 28.0607L130.375 31.0607L132.496 28.9393L129.496 25.9393L127.375 28.0607ZM131.436 31.5L137.936 31.5V28.5L131.436 28.5V31.5ZM32.9358 20H45.5V17H32.9358V20ZM46.6492 19.464L49.585 15.964L47.2866 14.036L44.3508 17.536L46.6492 19.464Z" fill="white"/>
<path d="M81.5 4.5H76.5L74.5 6.5L76.5 8.5H79.5L81 10L79.5 12H74M84 1V4.5M89 12H86L84 10V4.5M84 4.5H89M98.5 10.5L97 12H93L91.5 10.5V6L93 4.5H97L98.5 6V10.5ZM98.5 10.5L100.5 12.5M103 3.5V6.5M103 12V6.5M103 6.5L105 4.5H109" stroke="white" stroke-width="1.5"/>
</svg>
